<svg width="24" height="23" viewBox="0 0 24 23" fill="none" xmlns="http://www.w3.org/2000/svg">
<path d="M0.441144 8.6242C1.58011 11.0868 3.04986 13.3529 4.80952 15.3596C7.33338 18.2377 10.3947 20.5022 13.9084 22.0901C15.7173 22.9076 17.9147 22.4993 19.3709 21.0432L21.8983 18.5158L15.8799 12.5535L13.1517 15.2817C12.9309 15.5026 12.5859 15.5509 12.3129 15.3992C8.89281 13.4992 8.05056 11.923 7.06724 10.1536C6.91558 9.88055 6.96387 9.53565 7.18467 9.31479L9.91528 6.58424L3.94842 0.617432L1.44795 3.11766C-0.00548684 4.57086 -0.410066 6.78381 0.441144 8.6242ZM15.8846 14.5379L19.9047 18.5205L18.91 19.5152L14.8901 15.5324L15.8846 14.5379ZM3.94837 2.60634L7.92632 6.58429L6.93156 7.57909L2.95385 3.60081L3.94837 2.60634ZM5.95907 8.5956C5.50044 9.24761 5.4418 10.1238 5.83784 10.8366C6.62872 12.2603 7.57275 14.3747 11.6299 16.6287C12.3438 17.0253 13.2216 16.9659 13.8739 16.5054L17.8713 20.466C16.8747 21.144 15.5627 21.2942 14.4876 20.8084C7.31781 17.5683 3.58584 12.0731 1.71761 8.03379C1.20858 6.93317 1.3345 5.64241 2.0063 4.64231L5.95907 8.5956Z" fill="black"/>
<path d="M7.73241 1.40649H9.13883V2.81291H7.73241V1.40649Z" fill="black"/>
<path d="M10.5453 1.40649H11.9517V2.81291H10.5453V1.40649Z" fill="black"/>
<path d="M18.3274 9.84497H19.7338V11.2514H18.3274V9.84497Z" fill="black"/>
<path d="M22.5935 6.32887C22.5935 3.85104 20.7356 1.79534 18.3274 1.45592V0H16.921V1.45592C14.5127 1.79534 12.6549 3.85104 12.6549 6.32887V7.03207H11.2484V8.43849H23.9999V7.03207H22.5935V6.32887ZM21.1871 7.03207H14.0613V6.32887C14.0613 4.39012 15.6596 2.81283 17.6242 2.81283C19.5888 2.81283 21.1871 4.39012 21.1871 6.32887V7.03207Z" fill="black"/>
<path d="M18.3274 12.6577H19.7338V14.0641H18.3274V12.6577Z" fill="black"/>
</svg>
