<svg width="24" height="24" viewBox="0 0 24 24" fill="none" xmlns="http://www.w3.org/2000/svg">
<path d="M23.4736 3.65219C23.4748 3.5145 23.4215 3.38189 23.3254 3.28333L20.195 0.152902C20.0968 0.0560054 19.964 0.00244565 19.8261 0.00420652V0H6.78263C6.49448 0 6.26087 0.233609 6.26087 0.521755V9.3955L5.6588 9.40074C5.52116 9.40269 5.38992 9.45894 5.29357 9.55726L0.67202 14.2435C0.576004 14.3408 0.522053 14.4719 0.521759 14.6087V20.8643C0.521613 21.0047 0.578058 21.1391 0.678281 21.2374L2.72143 23.2388C2.81901 23.3342 2.95014 23.3876 3.08666 23.3875H3.09189C3.22953 23.3855 3.36077 23.3293 3.45713 23.2309L3.85836 22.8214C4.27989 23.0949 4.77186 23.2399 5.27434 23.2388H5.30198C5.63111 23.2351 5.95653 23.1689 6.26092 23.0437V23.4782C6.26092 23.7664 6.49453 24 6.78267 24H22.9566C23.2447 24 23.4783 23.7664 23.4783 23.4782V3.65219H23.4736ZM20.3478 1.78122L21.697 3.13043H20.3478V1.78122ZM5.77149 16.1739C5.63297 16.1738 5.50008 16.2288 5.4021 16.3268L4.29447 17.4344C3.8879 17.8405 3.2917 17.9917 2.74075 17.8283L2.44438 18.829C3.36233 19.1017 4.3559 18.8496 5.03271 18.1722L5.98749 17.2174H6.26087V21.8389C5.98877 22.0646 5.6476 22.1904 5.2941 22.1953C4.87825 22.2039 4.47687 22.0424 4.1828 21.7481C4.08742 21.6461 3.95188 21.5913 3.81238 21.5984C3.67474 21.6004 3.54351 21.6566 3.44715 21.7549L3.08192 22.128L1.56522 20.6452V14.8226L5.88311 10.44L6.26087 10.439V12.5217C6.26092 12.6454 6.30494 12.765 6.38506 12.8593L7.44002 13.934C7.53784 14.0319 7.67054 14.0869 7.80887 14.0869L10.9565 14.0869V14.6014C10.9534 15.1162 10.7025 15.5981 10.2824 15.8958C10.0203 16.0764 9.70963 16.1734 9.3913 16.1739H5.77149V16.1739ZM22.4348 22.9565H7.30433V17.2174H9.3913C10.83 17.2194 11.998 16.0547 12 14.616C12 14.6135 12 14.6111 12 14.6087V14.0869C11.9983 13.5113 11.5321 13.0452 10.9565 13.0435H8.02433L7.30433 12.3251V1.04346H19.3043V3.13043C19.3043 3.70673 19.7715 4.17389 20.3478 4.17389H22.4347V22.9565H22.4348Z" fill="black"/>
<path d="M9.39132 3.13037H8.34785V4.17383H9.39132V3.13037Z" fill="black"/>
<path d="M11.4782 3.13037H10.4347V4.17383H11.4782V3.13037Z" fill="black"/>
<path d="M20.3478 6.26099H8.34785V7.30444H20.3478V6.26099Z" fill="black"/>
<path d="M20.3478 9.39136H8.34785V10.4348H20.3478V9.39136Z" fill="black"/>
<path d="M17.7391 3.13037H12.5217V4.17383H17.7391V3.13037Z" fill="black"/>
<path d="M18.2608 12.5217H14.0869V13.5652H18.2608V12.5217Z" fill="black"/>
<path d="M20.3478 12.5217H19.3044V13.5652H20.3478V12.5217Z" fill="black"/>
<path d="M18.2608 15.6521H14.0869V16.6956H18.2608V15.6521Z" fill="black"/>
<path d="M20.3478 15.6521H19.3044V16.6956H20.3478V15.6521Z" fill="black"/>
<path d="M20.3478 18.2607H8.34785V19.3042H20.3478V18.2607Z" fill="black"/>
</svg>
