<svg width="20" height="19" viewBox="0 0 20 19" fill="none" xmlns="http://www.w3.org/2000/svg">
<path d="M12.3503 7.94311L12.0334 7.79603L11.7863 8.0431L10.3163 9.5131L9.96273 9.86666L10.3163 10.2202L16.8427 16.7467L16.1398 17.4496L9.61339 10.9231L9.26035 10.5701L8.9068 10.9226L2.37035 17.4401L1.66694 16.7367L11.0734 7.33021L11.3205 7.08314L11.1734 6.76619C10.5753 5.47744 10.9678 3.54605 12.453 2.06055C13.3421 1.17639 14.4083 0.664272 15.3978 0.533603C16.3872 0.402955 17.2696 0.653552 17.8663 1.25021C18.4682 1.85208 18.7184 2.73707 18.5867 3.72565C18.4549 4.715 17.9405 5.77885 17.0563 6.6631C15.5707 8.14865 13.6392 8.5412 12.3503 7.94311ZM1.19597 1.09936L7.48248 7.37691L5.35942 9.49997L1.5239 5.67361C1.52375 5.67346 1.5236 5.67331 1.52345 5.67316C0.868037 5.01562 0.5 4.12507 0.5 3.19666C0.5 2.43646 0.746751 1.70165 1.19597 1.09936Z" stroke="black"/>
</svg>
